#Comment line ignore any data following # character 
#Hierarchical Translation and Rotation (.htr) file 
[Header]	
#Header keywords are followed by a single value 
FileType HTR		#Single word string
DataType HTRS		#Translation followed by rotation and scale data
FileVersion 1		#integer
NumSegments 84		#integer
NumFrames 2		#integer
DataFrameRate 30		#integer, data frame rate in this file
EulerRotationOrder ZYX
CalibrationUnits mm
RotationUnits Degrees
GlobalAxisofGravity Y
BoneLengthAxis Y
ScaleFactor 1.00
[SegmentNames&Hierarchy]
#CHILD	PARENT
MASTER GLOBAL
root MASTER
chest root
L_mid_tent01 root
R_mid_tent01 root
spine01 root
Bip01_Neck chest
L_humerus chest
R_humerus chest
weapon_bone chest
Bip01_Head Bip01_Neck
eye_left_bone Bip01_Head
eye_right_bone Bip01_Head
L_forearm L_humerus
L_front_hand L_forearm
L_weapon_bone L_forearm
L_front_hand01_01 L_front_hand
L_front_hand02_01 L_front_hand
L_front_hand03_01 L_front_hand
L_front_hand01_02 L_front_hand01_01
L_front_hand02_02 L_front_hand02_01
L_front_hand03_02 L_front_hand03_01
R_forearm R_humerus
R_front_hand R_forearm
R_weapon_bone R_forearm
R_front_hand01_01 R_front_hand
R_front_hand02_01 R_front_hand
R_front_hand03_01 R_front_hand
R_front_hand01_02 R_front_hand01_01
R_front_hand02_02 R_front_hand02_01
R_front_hand03_02 R_front_hand03_01
null_rope01_connect L_mid_tent01
Rope1_Seg01 null_rope01_connect
Rope1_Seg02 Rope1_Seg01
Rope1_Seg03 Rope1_Seg02
Rope1_Seg04 Rope1_Seg03
Rope1_Seg05 Rope1_Seg04
Rope1_Seg06 Rope1_Seg05
Rope1_Seg07 Rope1_Seg06
Rope1_Seg09 Rope1_Seg07
L_mid_hand01 Rope1_Seg09
L_mid_hand02 Rope1_Seg09
L_mid_hand03 Rope1_Seg09
null_rope02_connect R_mid_tent01
Rope2_Seg01 null_rope02_connect
Rope2_Seg02 Rope2_Seg01
Rope2_Seg03 Rope2_Seg02
Rope2_Seg04 Rope2_Seg03
Rope2_Seg05 Rope2_Seg04
Rope2_Seg06 Rope2_Seg05
Rope2_Seg07 Rope2_Seg06
Rope2_Seg09 Rope2_Seg07
R_mid_hand01 Rope2_Seg09
R_mid_hand02 Rope2_Seg09
R_mid_hand03 Rope2_Seg09
spine02 spine01
spine03 spine02
pelvis spine03
null_rope03_connect pelvis
null_rope04_connect pelvis
Rope3_Seg01 null_rope03_connect
Rope3_Seg02 Rope3_Seg01
Rope3_Seg03 Rope3_Seg02
Rope3_Seg04 Rope3_Seg03
Rope3_Seg05 Rope3_Seg04
Rope3_Seg06 Rope3_Seg05
Rope3_Seg07 Rope3_Seg06
Rope3_Seg08 Rope3_Seg07
Rope3_Seg09 Rope3_Seg08
R_rear_hand01 Rope3_Seg09
R_rear_hand02 Rope3_Seg09
R_rear_hand03 Rope3_Seg09
Rope4_Seg01 null_rope04_connect
Rope4_Seg02 Rope4_Seg01
Rope4_Seg03 Rope4_Seg02
Rope4_Seg04 Rope4_Seg03
Rope4_Seg05 Rope4_Seg04
Rope4_Seg06 Rope4_Seg05
Rope4_Seg07 Rope4_Seg06
Rope4_Seg08 Rope4_Seg07
Rope4_Seg09 Rope4_Seg08
L_rear_hand01 Rope4_Seg09
L_rear_hand02 Rope4_Seg09
L_rear_hand03 Rope4_Seg09
[BasePosition]
#SegmentName Tx, Ty, Tz, Rx, Ry, Rz, BoneLength
MASTER 0.000000 0.000000 0.000000 -90.000000 0.000000 0.000000 10.000000 
root 0.000000 0.000000 0.000000 0.000000 0.000000 0.000000 10.000000 
chest 0.000000 0.000000 0.000000 0.000000 0.000000 0.000000 10.000000 
L_mid_tent01 0.000000 0.000000 0.000000 0.000000 0.000000 0.000000 10.000000 
R_mid_tent01 0.000000 0.000000 0.000000 0.000000 0.000000 0.000000 10.000000 
spine01 0.000000 0.000000 0.000000 0.000000 0.000000 0.000000 10.000000 
Bip01_Neck 0.000000 0.000000 0.000000 0.000000 0.000000 0.000000 10.000000 
L_humerus 0.000000 0.000000 0.000000 0.000000 0.000000 0.000000 10.000000 
R_humerus 0.000000 0.000000 0.000000 0.000000 0.000000 0.000000 10.000000 
weapon_bone 0.000000 0.000000 0.000000 0.000000 0.000000 0.000000 10.000000 
Bip01_Head 0.000000 0.000000 0.000000 0.000000 0.000000 0.000000 10.000000 
eye_left_bone 0.000000 0.000000 0.000000 0.000000 0.000000 0.000000 10.000000 
eye_right_bone 0.000000 0.000000 0.000000 0.000000 0.000000 0.000000 10.000000 
L_forearm 0.000000 0.000000 0.000000 0.000000 0.000000 0.000000 10.000000 
L_front_hand 0.000000 0.000000 0.000000 0.000000 0.000000 0.000000 10.000000 
L_weapon_bone 0.000000 0.000000 0.000000 0.000000 0.000000 0.000000 10.000000 
L_front_hand01_01 0.000000 0.000000 0.000000 0.000000 0.000000 0.000000 10.000000 
L_front_hand02_01 0.000000 0.000000 0.000000 0.000000 0.000000 0.000000 10.000000 
L_front_hand03_01 0.000000 0.000000 0.000000 0.000000 0.000000 0.000000 10.000000 
L_front_hand01_02 0.000000 0.000000 0.000000 0.000000 0.000000 0.000000 10.000000 
L_front_hand02_02 0.000000 0.000000 0.000000 0.000000 0.000000 0.000000 10.000000 
L_front_hand03_02 0.000000 0.000000 0.000000 0.000000 0.000000 0.000000 10.000000 
R_forearm 0.000000 0.000000 0.000000 0.000000 0.000000 0.000000 10.000000 
R_front_hand 0.000000 0.000000 0.000000 0.000000 0.000000 0.000000 10.000000 
R_weapon_bone 0.000000 0.000000 0.000000 0.000000 0.000000 0.000000 10.000000 
R_front_hand01_01 0.000000 0.000000 0.000000 0.000000 0.000000 0.000000 10.000000 
R_front_hand02_01 0.000000 0.000000 0.000000 0.000000 0.000000 0.000000 10.000000 
R_front_hand03_01 0.000000 0.000000 0.000000 0.000000 0.000000 0.000000 10.000000 
R_front_hand01_02 0.000000 0.000000 0.000000 0.000000 0.000000 0.000000 10.000000 
R_front_hand02_02 0.000000 0.000000 0.000000 0.000000 0.000000 0.000000 10.000000 
R_front_hand03_02 0.000000 0.000000 0.000000 0.000000 0.000000 0.000000 10.000000 
null_rope01_connect 0.000000 0.000000 0.000000 0.000000 0.000000 0.000000 10.000000 
Rope1_Seg01 0.000000 0.000000 0.000000 0.000000 0.000000 0.000000 10.000000 
Rope1_Seg02 0.000000 0.000000 0.000000 0.000000 0.000000 0.000000 10.000000 
Rope1_Seg03 0.000000 0.000000 0.000000 0.000000 0.000000 0.000000 10.000000 
Rope1_Seg04 0.000000 0.000000 0.000000 0.000000 0.000000 0.000000 10.000000 
Rope1_Seg05 0.000000 0.000000 0.000000 0.000000 0.000000 0.000000 10.000000 
Rope1_Seg06 0.000000 0.000000 0.000000 0.000000 0.000000 0.000000 10.000000 
Rope1_Seg07 0.000000 0.000000 0.000000 0.000000 0.000000 0.000000 10.000000 
Rope1_Seg09 0.000000 0.000000 0.000000 0.000000 0.000000 0.000000 10.000000 
L_mid_hand01 0.000000 0.000000 0.000000 0.000000 0.000000 0.000000 10.000000 
L_mid_hand02 0.000000 0.000000 0.000000 0.000000 0.000000 0.000000 10.000000 
L_mid_hand03 0.000000 0.000000 0.000000 0.000000 0.000000 0.000000 10.000000 
null_rope02_connect 0.000000 0.000000 0.000000 0.000000 0.000000 0.000000 10.000000 
Rope2_Seg01 0.000000 0.000000 0.000000 0.000000 0.000000 0.000000 10.000000 
Rope2_Seg02 0.000000 0.000000 0.000000 0.000000 0.000000 0.000000 10.000000 
Rope2_Seg03 0.000000 0.000000 0.000000 0.000000 0.000000 0.000000 10.000000 
Rope2_Seg04 0.000000 0.000000 0.000000 0.000000 0.000000 0.000000 10.000000 
Rope2_Seg05 0.000000 0.000000 0.000000 0.000000 0.000000 0.000000 10.000000 
Rope2_Seg06 0.000000 0.000000 0.000000 0.000000 0.000000 0.000000 10.000000 
Rope2_Seg07 0.000000 0.000000 0.000000 0.000000 0.000000 0.000000 10.000000 
Rope2_Seg09 0.000000 0.000000 0.000000 0.000000 0.000000 0.000000 10.000000 
R_mid_hand01 0.000000 0.000000 0.000000 0.000000 0.000000 0.000000 10.000000 
R_mid_hand02 0.000000 0.000000 0.000000 0.000000 0.000000 0.000000 10.000000 
R_mid_hand03 0.000000 0.000000 0.000000 0.000000 0.000000 0.000000 10.000000 
spine02 0.000000 0.000000 0.000000 0.000000 0.000000 0.000000 10.000000 
spine03 0.000000 0.000000 0.000000 0.000000 0.000000 0.000000 10.000000 
pelvis 0.000000 0.000000 0.000000 0.000000 0.000000 0.000000 10.000000 
null_rope03_connect 0.000000 0.000000 0.000000 0.000000 0.000000 0.000000 10.000000 
null_rope04_connect 0.000000 0.000000 0.000000 0.000000 0.000000 0.000000 10.000000 
Rope3_Seg01 0.000000 0.000000 0.000000 0.000000 0.000000 0.000000 10.000000 
Rope3_Seg02 0.000000 0.000000 0.000000 0.000000 0.000000 0.000000 10.000000 
Rope3_Seg03 0.000000 0.000000 0.000000 0.000000 0.000000 0.000000 10.000000 
Rope3_Seg04 0.000000 0.000000 0.000000 0.000000 0.000000 0.000000 10.000000 
Rope3_Seg05 0.000000 0.000000 0.000000 0.000000 0.000000 0.000000 10.000000 
Rope3_Seg06 0.000000 0.000000 0.000000 0.000000 0.000000 0.000000 10.000000 
Rope3_Seg07 0.000000 0.000000 0.000000 0.000000 0.000000 0.000000 10.000000 
Rope3_Seg08 0.000000 0.000000 0.000000 0.000000 0.000000 0.000000 10.000000 
Rope3_Seg09 0.000000 0.000000 0.000000 0.000000 0.000000 0.000000 10.000000 
R_rear_hand01 0.000000 0.000000 0.000000 0.000000 0.000000 0.000000 10.000000 
R_rear_hand02 0.000000 0.000000 0.000000 0.000000 0.000000 0.000000 10.000000 
R_rear_hand03 0.000000 0.000000 0.000000 0.000000 0.000000 0.000000 10.000000 
Rope4_Seg01 0.000000 0.000000 0.000000 0.000000 0.000000 0.000000 10.000000 
Rope4_Seg02 0.000000 0.000000 0.000000 0.000000 0.000000 0.000000 10.000000 
Rope4_Seg03 0.000000 0.000000 0.000000 0.000000 0.000000 0.000000 10.000000 
Rope4_Seg04 0.000000 0.000000 0.000000 0.000000 0.000000 0.000000 10.000000 
Rope4_Seg05 0.000000 0.000000 0.000000 0.000000 0.000000 0.000000 10.000000 
Rope4_Seg06 0.000000 0.000000 0.000000 0.000000 0.000000 0.000000 10.000000 
Rope4_Seg07 0.000000 0.000000 0.000000 0.000000 0.000000 0.000000 10.000000 
Rope4_Seg08 0.000000 0.000000 0.000000 0.000000 0.000000 0.000000 10.000000 
Rope4_Seg09 0.000000 0.000000 0.000000 0.000000 0.000000 0.000000 10.000000 
L_rear_hand01 0.000000 0.000000 0.000000 0.000000 0.000000 0.000000 10.000000 
L_rear_hand02 0.000000 0.000000 0.000000 0.000000 0.000000 0.000000 10.000000 
L_rear_hand03 0.000000 0.000000 0.000000 0.000000 0.000000 0.000000 10.000000 
#Beginning of Data. Separated by tabs
#Fr	Tx	Ty	Tz	Rx	Ry	Rz	SF
[MASTER]
48 0.000000 0.000000 0.000000 0.001660 0.001660 0.001660 0.000000
49 0.000000 0.000000 0.000000 0.001660 0.001660 0.001660 0.000000
[root]
48 -16.587975 -190.983948 933.097229 -85.973213 -60.883263 -92.950035 952.586182
49 -16.537716 -195.513260 929.591675 -85.838745 -61.375492 -93.031525 950.073425
[chest]
48 -84.512650 -34.090519 0.000000 2.288139 -1.637005 -124.674492 91.129311
49 -84.512650 -34.090519 0.000000 2.308063 -1.608313 -124.473000 91.129311
[L_mid_tent01]
48 27.299500 22.177483 -249.917984 -17.448719 -1.307463 111.356094 252.380859
49 27.299500 22.177483 -249.917984 -17.245281 -0.493407 115.253105 252.380859
[R_mid_tent01]
48 23.228794 24.509907 226.238495 -174.101868 2.014268 103.192345 228.744751
49 23.228794 24.509907 226.238495 -174.452393 1.858400 106.440323 228.744751
[spine01]
48 -0.361383 -0.195265 0.000000 0.001942 0.001318 21.660959 0.410763
49 -0.361383 -0.195265 0.000000 0.001944 0.001316 21.791265 0.410763
[Bip01_Neck]
48 165.484543 71.581718 0.000119 175.896118 1.177290 24.871183 180.302734
49 165.484543 71.581718 0.000119 175.896118 1.177290 24.871183 180.302734
[L_humerus]
48 -13.983130 -135.272980 -120.471481 -91.928993 0.761775 -169.954529 181.680161
49 -13.983130 -135.272980 -120.471481 -91.796143 0.781421 -168.678909 181.680161
[R_humerus]
48 -13.983309 -135.273102 125.287651 103.000740 1.729733 -169.272232 184.909012
49 -13.983309 -135.273102 125.287651 103.000740 1.729732 -169.272232 184.909012
[weapon_bone]
48 235.964890 -300.705902 0.000000 0.000000 -89.951546 -128.212341 382.234833
49 235.964890 -300.705902 0.000000 0.000000 -89.951546 -128.212341 382.234833
[Bip01_Head]
48 102.819786 23.735447 5.410384 3.150731 3.423701 -20.839088 105.662445
49 102.819786 23.735441 5.410389 3.150732 3.423701 -20.839092 105.662445
[eye_left_bone]
48 -24.626970 125.451866 -64.772606 0.000000 -90.000000 -99.840431 143.318359
49 -24.626970 125.451866 -64.772606 0.000000 -90.000000 -99.840431 143.318359
[eye_right_bone]
48 -24.626970 125.451866 64.327362 0.000000 -89.960434 80.159386 143.117676
49 -24.626970 125.451866 64.327362 0.000000 -89.960434 80.159386 143.117676
[L_forearm]
48 322.776093 0.000000 -0.000119 0.000038 0.002347 -88.137009 322.776093
49 322.776093 0.000000 -0.000119 0.000031 0.002347 -88.492119 322.776093
[L_front_hand]
48 241.149185 -0.042021 -3.300071 -177.732132 -0.089930 -79.217468 241.171753
49 241.149185 -0.042021 -3.300071 -177.731247 -0.076607 -79.538635 241.171753
[L_weapon_bone]
48 156.183838 0.000000 0.000000 0.001747 0.001567 6.221508 156.183838
49 156.183838 0.000000 0.000000 0.001702 0.001616 2.949614 156.183838
[L_front_hand01_01]
48 86.095154 20.947098 -0.655860 0.405585 -0.442306 -4.620490 88.609184
49 86.095154 20.947098 -0.655860 0.405585 -0.442306 -4.620490 88.609184
[L_front_hand02_01]
48 86.935165 -11.437475 24.513514 116.959450 3.630817 1.495453 91.046425
49 86.935165 -11.437475 24.513514 116.959450 3.630817 1.495453 91.046425
[L_front_hand03_01]
48 86.637497 -14.123976 -20.424902 -118.420097 -4.656303 -0.152527 90.126129
49 86.637497 -14.123976 -20.424902 -118.420097 -4.656303 -0.152527 90.126129
[L_front_hand01_02]
48 71.020905 -0.000179 0.000030 0.001534 0.001777 -8.378851 71.020905
49 71.020905 -0.000179 0.000030 0.001534 0.001777 -8.378850 71.020905
[L_front_hand02_02]
48 71.020927 -0.000119 0.000060 0.001534 0.001777 -8.378851 71.020927
49 71.020927 -0.000119 0.000060 0.001534 0.001777 -8.378850 71.020927
[L_front_hand03_02]
48 71.020905 -0.000060 0.000060 0.001534 0.001777 -8.378851 71.020905
49 71.020905 -0.000060 0.000060 0.001534 0.001777 -8.378850 71.020905
[R_forearm]
48 322.776428 -0.000060 0.000030 0.212399 -0.024982 -84.700340 322.776428
49 322.776428 -0.000060 0.000030 0.212123 -0.027228 -83.488197 322.776428
[R_front_hand]
48 238.847015 -0.006795 2.210259 -1.680950 -0.388336 -91.769417 238.857239
49 238.847015 -0.006795 2.210259 -1.678240 -0.397869 -92.097313 238.857239
[R_weapon_bone]
48 155.664093 0.002503 -0.000030 0.003406 0.001396 -98.184906 155.664078
49 155.664093 0.002503 -0.000030 0.003450 0.001283 -94.399933 155.664078
[R_front_hand01_01]
48 87.624611 14.231146 22.918642 -116.960213 3.496675 -1.324139 91.683487
49 87.624611 14.231146 22.918642 -116.960213 3.496675 -1.324139 91.683487
[R_front_hand02_01]
48 89.356956 14.367283 -19.491137 118.419647 -4.257089 0.609827 92.579636
49 89.356956 14.367283 -19.491137 118.419647 -4.257089 0.609827 92.579636
[R_front_hand03_01]
48 87.286232 -22.307278 -0.143439 -0.387970 -0.231462 4.232001 90.091743
49 87.286232 -22.307278 -0.143439 -0.387970 -0.231462 4.232001 90.091743
[R_front_hand01_02]
48 71.020905 0.000060 0.000119 0.001777 0.001534 8.377220 71.020905
49 71.020905 0.000060 0.000119 0.001777 0.001534 8.377220 71.020905
[R_front_hand02_02]
48 71.020844 -0.000030 -0.000119 0.001777 0.001534 8.377220 71.020836
49 71.020844 -0.000030 -0.000119 0.001777 0.001534 8.377220 71.020836
[R_front_hand03_02]
48 71.020905 0.000000 0.000030 0.001777 0.001534 8.377220 71.020905
49 71.020905 0.000000 0.000030 0.001777 0.001534 8.377220 71.020905
[null_rope01_connect]
48 328.732483 0.000000 -0.000238 119.095909 -73.071251 -79.023186 328.732483
49 328.732483 0.000000 -0.000238 117.967628 -73.248001 -81.422050 328.732483
[Rope1_Seg01]
48 0.000000 0.000000 0.000000 111.398888 64.623528 131.508011 0.000000
49 0.000000 0.000000 0.000000 99.591042 65.869118 117.497986 0.000000
[Rope1_Seg02]
48 139.999863 -0.000179 0.000000 0.136539 -22.843014 79.912285 139.999863
49 139.999863 -0.000179 0.000000 10.700088 -22.959532 84.336288 139.999863
[Rope1_Seg03]
48 139.999924 0.000060 -0.000060 27.677700 -1.305654 16.246990 139.999924
49 139.999924 0.000060 -0.000060 25.890673 1.677681 11.152426 139.999924
[Rope1_Seg04]
48 139.999924 -0.000060 -0.000119 51.735874 9.651088 16.172827 139.999924
49 139.999924 -0.000060 -0.000119 53.948292 12.065987 16.829359 139.999924
[Rope1_Seg05]
48 139.999832 0.000119 -0.000060 36.706345 43.434746 6.986833 139.999832
49 139.999832 0.000119 -0.000060 29.161613 44.754578 1.275644 139.999832
[Rope1_Seg06]
48 139.999954 0.000119 -0.000060 1.160451 20.346384 -10.412891 139.999954
49 139.999954 0.000119 -0.000060 0.434327 19.667652 -10.589737 139.999954
[Rope1_Seg07]
48 139.999985 0.000060 0.000000 -0.085422 8.753542 -4.897066 139.999985
49 139.999985 0.000060 0.000000 -0.268198 8.427971 -4.805025 139.999985
[Rope1_Seg09]
48 121.602913 0.000119 -0.000089 -89.793175 -1.359789 0.847147 121.602913
49 121.602913 0.000119 -0.000089 -89.793175 -1.359789 0.847147 121.602913
[L_mid_hand01]
48 103.859421 1.038730 8.195221 104.353584 -0.034071 -0.541212 104.187431
49 103.859421 1.038730 8.195221 104.352798 0.170618 -0.487239 104.187431
[L_mid_hand02]
48 105.572853 -4.139662 -10.864139 -135.629807 4.172912 -3.657947 106.211075
49 105.572853 -4.139662 -10.864139 -135.618454 4.024950 -3.503906 106.211075
[L_mid_hand03]
48 104.641464 17.579376 -3.913581 -18.765688 -0.203592 3.309105 106.179977
49 104.641464 17.579376 -3.913581 -18.761129 -0.266869 3.108912 106.179977
[null_rope02_connect]
48 328.732849 0.000179 -0.000119 135.432236 83.031647 -92.308197 328.732849
49 328.732849 0.000179 -0.000119 134.838013 83.485161 -90.131897 328.732849
[Rope2_Seg01]
48 0.000095 0.000153 0.000072 -17.449446 53.247116 93.418617 0.000194
49 0.000095 0.000153 0.000073 -12.525133 52.696507 99.088181 0.000194
[Rope2_Seg02]
48 139.999741 -0.000060 -0.000119 -5.494774 -30.844797 -14.786221 139.999756
49 139.999741 -0.000060 -0.000119 -8.024348 -34.308094 -16.297136 139.999756
[Rope2_Seg03]
48 140.000107 0.000030 0.000000 -25.386179 -38.434597 -33.860184 140.000107
49 140.000107 0.000030 0.000000 -28.850266 -36.023575 -35.002766 140.000107
[Rope2_Seg04]
48 139.999802 0.000000 -0.000060 -20.672718 -12.768768 -25.840929 139.999802
49 139.999802 0.000000 -0.000060 -19.714445 -11.225500 -25.387705 139.999802
[Rope2_Seg05]
48 139.999985 -0.000060 0.000119 -17.553535 -5.198158 -37.823002 139.999985
49 139.999985 -0.000060 0.000119 -16.930326 -4.736767 -37.944496 139.999985
[Rope2_Seg06]
48 139.999893 -0.000030 -0.000119 -4.022095 3.734341 -16.674942 139.999893
49 139.999893 -0.000030 -0.000119 -3.773381 3.863912 -16.735544 139.999893
[Rope2_Seg07]
48 139.999893 0.000060 -0.000060 -0.812461 2.043017 -7.016608 139.999893
49 139.999893 0.000060 -0.000060 -0.707555 2.083689 -7.104207 139.999893
[Rope2_Seg09]
48 121.338966 0.000089 -0.000060 33.793236 -1.359788 -0.847141 121.338966
49 121.338966 0.000089 -0.000060 33.793236 -1.359788 -0.847141 121.338966
[R_mid_hand01]
48 104.680779 11.144459 -10.335981 -47.372940 3.232710 5.697473 105.778534
49 104.680779 11.144459 -10.335981 -47.379337 3.082094 5.563085 105.778534
[R_mid_hand02]
48 104.070427 2.443552 8.231699 75.621040 -2.601756 1.201476 104.424065
49 104.070427 2.443552 8.231699 75.626724 -2.413977 1.152948 104.424065
[R_mid_hand03]
48 106.028137 -11.221827 -5.996406 -164.397064 2.593097 -6.487661 106.788818
49 106.028137 -11.221827 -5.996406 -164.386276 2.537100 -6.295038 106.788818
[spine02]
48 129.756927 0.001550 0.000119 -3.138655 -3.231091 39.729748 129.756927
49 129.756927 0.001550 0.000119 -3.251408 -3.159766 41.715858 129.756927
[spine03]
48 79.085503 0.005237 -0.293929 4.885061 7.830396 46.180355 79.086044
49 79.095543 0.003491 -0.195952 5.027832 8.055665 47.424427 79.095787
[pelvis]
48 169.435242 0.051022 0.000000 -6.826589 -2.748242 13.023577 169.435257
49 169.435242 0.051022 0.000000 -6.977655 -2.782862 13.343257 169.435257
[null_rope03_connect]
48 -1.257226 -2.466202 137.391083 154.920441 -84.923485 -124.021248 137.418976
49 -1.257226 -2.466202 137.391083 154.154572 -84.727081 -126.422966 137.418976
[null_rope04_connect]
48 -1.259640 -2.480268 -137.844437 154.920441 -84.923485 -124.021248 137.872513
49 -1.259640 -2.480268 -137.844437 154.154572 -84.727081 -126.422966 137.872513
[Rope3_Seg01]
48 0.000000 0.000000 0.000000 174.943314 80.697426 -118.459839 0.000000
49 0.000000 0.000000 0.000000 176.587616 80.222717 -117.007805 0.000000
[Rope3_Seg02]
48 139.999924 -0.000119 0.000060 -5.999334 -12.622165 6.383171 139.999924
49 139.999924 -0.000119 0.000060 -6.737369 -13.950294 7.148780 139.999924
[Rope3_Seg03]
48 139.999924 -0.000119 0.000119 -13.499874 -32.975464 14.696507 139.999924
49 139.999924 -0.000119 0.000119 -14.555802 -35.693134 16.044134 139.999924
[Rope3_Seg04]
48 139.999924 0.000119 0.000000 -3.958743 -31.520889 7.889826 139.999924
49 139.999924 0.000119 0.000000 -2.882363 -29.301632 6.832967 139.999924
[Rope3_Seg05]
48 139.999924 -0.000238 0.000060 4.527110 -38.210571 6.841512 139.999924
49 139.999924 -0.000238 0.000060 5.931733 -44.512447 8.491852 139.999924
[Rope3_Seg06]
48 139.999893 -0.000119 -0.000060 6.415675 -65.491684 36.261505 139.999893
49 139.999893 -0.000119 -0.000060 9.189087 -59.816940 33.260921 139.999893
[Rope3_Seg07]
48 139.999771 0.000060 -0.000119 4.568201 -8.915921 9.223326 139.999771
49 139.999771 0.000060 -0.000119 3.965383 -7.478539 8.001651 139.999771
[Rope3_Seg08]
48 139.999985 -0.000060 0.000000 1.830866 -2.663713 3.279438 139.999985
49 139.999985 -0.000060 0.000000 1.719100 -2.428793 3.023044 139.999985
[Rope3_Seg09]
48 90.185997 -0.000179 -0.000060 89.793228 -1.359877 -0.847183 90.185997
49 90.185997 -0.000179 -0.000060 89.793228 -1.359877 -0.847183 90.185997
[R_rear_hand01]
48 103.366196 -6.073594 -10.757982 -156.081268 6.205678 -3.103276 104.101845
49 103.366196 -6.073594 -10.757982 -156.061935 6.135039 -2.934831 104.101845
[R_rear_hand02]
48 100.509819 12.039542 -7.992327 -38.699455 2.164026 5.719800 101.543350
49 100.509819 12.039542 -7.992327 -38.704472 2.050633 5.575751 101.543350
[R_rear_hand03]
48 101.539970 5.215704 5.435467 84.309303 -2.696040 4.129932 101.819031
49 101.539970 5.215704 5.435467 84.305260 -2.514429 4.113845 101.819031
[Rope4_Seg01]
48 0.000000 0.000000 0.000000 87.505424 82.440536 -75.402733 0.000000
49 0.000000 0.000000 0.000000 87.982117 82.041000 -74.804977 0.000000
[Rope4_Seg02]
48 139.999985 0.000060 0.000119 3.339384 3.610566 -10.263091 139.999985
49 139.999985 0.000060 0.000119 3.638519 3.952573 -11.164709 139.999985
[Rope4_Seg03]
48 139.999924 0.000000 -0.000238 5.304386 8.081337 -30.016230 139.999924
49 139.999924 0.000000 -0.000238 5.333724 8.806186 -33.826263 139.999924
[Rope4_Seg04]
48 139.999985 0.000000 0.000119 -0.885415 5.847514 -43.744068 139.999985
49 139.999985 0.000000 0.000119 -1.613630 5.056947 -43.108177 139.999985
[Rope4_Seg05]
48 139.999802 -0.000060 -0.000119 -4.372683 2.731071 -23.680426 139.999802
49 139.999802 -0.000060 -0.000119 -4.939586 3.125929 -23.490314 139.999802
[Rope4_Seg06]
48 139.999924 0.000000 0.000060 -29.932323 9.700981 -68.182877 139.999924
49 139.999924 0.000000 0.000060 -28.337744 11.281492 -63.520657 139.999924
[Rope4_Seg07]
48 139.999802 0.000000 0.000000 -11.143182 14.517797 -22.727373 139.999802
49 139.999802 0.000000 0.000000 -10.109909 13.883514 -21.721960 139.999802
[Rope4_Seg08]
48 139.999924 0.000000 0.000119 -3.114004 4.222608 -4.693940 139.999924
49 139.999924 0.000000 0.000119 -3.205925 4.518182 -5.186884 139.999924
[Rope4_Seg09]
48 90.185791 0.000060 0.000060 -135.617828 2.228885 0.850567 90.185791
49 90.185791 0.000060 0.000060 -135.617828 2.228885 0.850567 90.185791
[L_rear_hand01]
48 101.696655 -8.392275 -7.654577 -38.748692 0.019154 177.002899 102.329041
49 101.696655 -8.392275 -7.654577 -38.750347 0.142151 177.158920 102.329041
[L_rear_hand02]
48 102.726799 -1.568258 5.773216 84.315033 -0.780038 176.215515 102.900848
49 102.726799 -1.568258 5.773216 84.315521 -0.978705 176.235840 102.900848
[L_rear_hand03]
48 104.552910 9.721220 -10.420293 -155.775497 -4.784177 179.902542 105.519653
49 104.552910 9.721220 -10.420293 -155.758545 -4.699042 179.717606 105.519653
